<svg xmlns="http://www.w3.org/2000/svg" width="135" height="42" viewBox="0 0 135 42"><rect width="135" height="42" rx="7" fill="#000"/><rect x="0.5" y="0.5" width="134" height="41" rx="6.5" fill="none" stroke="#A6A6A6" stroke-width="0.5"/><path fill="#fff" d="M28.6 21c0-2.3 1.9-3.4 2-3.5-1.1-1.6-2.8-1.8-3.4-1.8-1.4-.1-2.8.9-3.5.9-.7 0-1.8-.8-3-.8-1.5 0-2.9.9-3.7 2.3-1.6 2.7-.4 6.8 1.1 9 .7 1.1 1.6 2.3 2.7 2.3 1.1 0 1.5-.7 2.8-.7 1.3 0 1.6.7 2.8.7 1.2 0 1.9-1.1 2.6-2.2.8-1.2 1.2-2.5 1.2-2.5-.1 0-2.4-.9-2.5-3.6zm-2.3-6.6c.6-.7 1-1.7.9-2.7-.9 0-2 .6-2.6 1.3-.6.6-1.1 1.6-.9 2.6.9.1 1.9-.5 2.6-1.2z"/><text x="42" y="16" fill="#fff" font-family="Helvetica,Arial,sans-serif" font-size="7">Download on the</text><text x="42" y="31" fill="#fff" font-family="Helvetica,Arial,sans-serif" font-size="15" font-weight="600">App Store</text></svg>
