<svg xmlns="http://www.w3.org/2000/svg" width="145" height="42" viewBox="0 0 145 42"><rect width="145" height="42" rx="7" fill="#000"/><rect x="0.5" y="0.5" width="144" height="41" rx="6.5" fill="none" stroke="#A6A6A6" stroke-width="0.5"/><g transform="translate(13 11)"><path fill="#00D2FF" d="M.5.4C.2.7 0 1.1 0 1.7v17.6c0 .6.2 1 .5 1.3l.1.1L10.4 11v-.2L.6.3z"/><path fill="#FFBC00" d="m13.7 14.3-3.3-3.3v-.2l3.3-3.3.1.1 3.9 2.2c1.1.6 1.1 1.7 0 2.3z"/><path fill="#FF3A44" d="M13.8 14.2 10.4 11 .5 20.9c.4.4 1 .4 1.7.1z"/><path fill="#00E676" d="M13.8 7.6 2.2.9C1.5.5.9.6.5 1L10.4 11z"/></g><text x="42" y="16" fill="#fff" font-family="Helvetica,Arial,sans-serif" font-size="7">GET IT ON</text><text x="42" y="31" fill="#fff" font-family="Helvetica,Arial,sans-serif" font-size="14" font-weight="600">Google Play</text></svg>
