<svg width="200" height="200" viewBox="0 0 200 200" fill="none" xmlns="http://www.w3.org/2000/svg">
<path d="M159 148C159 151.314 156.314 154 153 154H152C148.686 154 146 151.314 146 148V134H159V148ZM149 137V147.5C149 149.433 150.567 151 152.5 151C154.433 151 156 149.433 156 147.5V137H149Z" fill="#C681C2"/>
<path d="M158.738 19.0454C160.159 18.662 159.898 20.8137 159.978 21.4915C160.513 26.0542 161.294 33.804 165.377 36.5948C168.888 38.994 173.877 39.15 177.976 39.5604C178.751 39.9755 178.717 41.0555 177.826 41.2888C176.536 41.6254 174.553 41.5832 173.114 41.8153C169.871 42.3383 165.366 43.4981 163.192 46.1095C160.702 49.102 159.816 55.2489 159.378 59.0575C159.289 59.8338 159.336 62.3995 158.926 62.7947C158.643 63.0667 158.113 63.1125 157.794 62.8826C157.289 62.5191 157.366 60.2524 157.281 59.5067C156.78 55.1691 155.985 48.2952 152.87 45.06C149.743 41.8107 144.238 41.6828 140.024 41.2935C137.881 39.0515 142.84 39.3868 144.167 39.2074C147.867 38.7079 152.617 37.8988 154.708 34.483C156.694 31.2371 157.419 26.4329 157.879 22.6887C157.984 21.8316 157.788 19.3022 158.737 19.0454H158.738ZM170.303 40.2757C163.277 39.6014 159.983 34.1581 159.004 27.7017C158.169 30.9581 157.329 35.1467 154.66 37.4262C152.574 39.2074 150.726 39.5323 148.223 40.2698C148.005 40.3343 147.962 40.1831 148.004 40.5724C154.574 41.5445 157.475 47.7887 158.256 53.7444C159.339 49.0023 160.699 44.6109 165.265 42.1941C166.883 41.3381 168.352 41.0836 170.003 40.495C170.148 40.4434 170.347 40.4786 170.304 40.2757H170.303Z" fill="#2DC9AE"/>
<path d="M156.387 67.9519C155.216 68.075 153.76 68.3869 152.601 68.2661C152.39 68.2438 152.279 68.1149 152.229 68.1055C152.352 67.7291 152.407 67.3468 152.394 66.9469C152.245 62.0594 152.018 57.4663 147.836 54.2498C143.651 51.0298 138.804 52.6011 133.903 52.2446C133.153 50.875 133.23 49.5746 132.979 48.0865C135.208 48.1428 137.454 48.0126 139.684 48.0807C142.686 48.1721 145.278 48.219 148.02 49.5992C153.498 52.356 155.973 57.614 156.384 63.5651C156.459 64.6603 156.157 67.1322 156.386 67.9519H156.387Z" fill="#C681C2"/>
<path d="M168.514 68.3001C168.837 68.6355 168.642 69.4411 168.709 69.875C168.853 70.8248 169.328 73.0188 169.935 73.7294C170.847 74.7953 173.546 74.5338 174.842 74.9829C175.004 75.0392 175.519 75.2409 175.328 75.4953C175.203 75.663 171.893 76.1719 171.243 76.4158C170.647 76.6398 169.497 77.3551 169.191 77.9051C168.601 78.9663 168.884 81.7231 168.484 82.2789C168.357 82.4548 167.924 82.4794 167.73 82.4349C167.406 82.3587 167.256 79.2841 167.095 78.7271C166.28 75.9022 163.086 76.5378 160.925 75.8119C160.484 74.7144 161.969 75.133 162.624 75.0345C163.327 74.9301 165.444 74.3215 165.929 73.8736C166.16 73.6602 166.878 72.3867 167.018 72.0373C167.318 71.2856 167.598 68.2309 168.033 68.1242C168.143 68.0973 168.433 68.2157 168.515 68.3001H168.514ZM171.17 75.6501C170.874 75.1799 170.226 75.1037 169.794 74.7953C169.013 74.2371 168.403 73.2017 168.242 72.2648L166.773 74.8867L165.01 75.3452L166.476 76.2634C167.01 76.8767 167.852 77.3821 167.937 78.2674L168.949 76.5882C169.622 75.717 170.02 75.5106 171.169 75.6489L171.17 75.6501Z" fill="#2DC9AE"/>
<path d="M35.66 89.2009C35.5345 89.3475 32.6346 89.718 31.958 90.1976C31.4081 90.5881 30.8464 91.8135 30.6822 92.4643C30.5966 92.802 30.4876 94.3616 30.4149 94.4296C30.3891 94.4531 29.825 94.4718 29.743 94.4484C29.4252 94.3534 29.6761 91.457 28.9491 90.601C28.0274 89.5163 25.4629 89.6676 24.7288 89.1235C24.5682 89.0051 24.4896 88.6744 24.5705 88.5888C24.7159 88.434 27.9993 88.3132 28.6876 87.6226C29.4897 86.817 29.4052 84.3029 29.9247 83.2405C30.1792 82.7198 30.5122 83.1127 30.5802 83.5805C30.8194 85.2269 30.6904 87.3517 32.6077 88.0201C33.3722 88.2863 34.77 88.2464 35.3985 88.6169C35.6225 88.7494 35.7995 89.0379 35.6588 89.2021L35.66 89.2009ZM30.2695 86.5836C30.0408 86.3374 30.0033 86.6387 29.947 86.7982C29.5237 87.9908 29.7007 88.0986 28.3956 88.6369C28.0989 88.7588 27.1714 88.7096 27.8715 89.0625C28.3698 89.3135 29.125 89.5867 29.5049 90.0452C29.7981 90.3981 29.7781 90.9223 30.1944 91.2037C30.6541 90.146 31.3248 88.9687 32.5819 88.8175C31.7376 88.5958 30.9308 87.9779 30.4442 87.2567C30.2953 87.0351 30.2929 86.6094 30.2695 86.5848V86.5836Z" fill="#2DC9AE"/>
<path d="M35.198 106.603C36.4163 106.288 38.5681 105.693 39.3596 104.682C39.8216 104.092 40.7069 102.122 40.8254 101.374C40.952 100.573 40.5697 97.849 41.8796 98.1222C42.0754 98.1632 42.467 101.411 42.6336 102.015C43.9856 106.911 46.7295 105.865 50.6027 107.135C50.7938 107.197 51.2206 107.473 51.0588 107.678C50.863 107.925 46.0928 108.718 44.9987 109.396C44.0583 109.979 42.8376 112.04 42.5409 113.097C42.3627 113.727 42.2079 117.141 41.8796 117.236C41.7365 117.277 41.2886 117.277 41.1865 117.137C41.0505 116.951 40.782 113.401 40.5439 112.575C39.6223 109.372 37.9736 109.052 35.0444 108.451C34.5589 108.351 31.6297 108.222 31.8114 107.452C31.8853 107.137 34.6539 106.743 35.1991 106.603H35.198ZM47.2091 107.529C44.5238 107.325 42.3533 105.178 41.8186 102.6C41.414 102.949 41.4293 103.641 41.1854 104.198C40.9602 104.712 39.1649 106.399 38.6326 106.727C37.9325 107.158 37.1551 107.26 36.4292 107.605C37.311 107.793 38.6771 108.05 39.3631 108.676C39.546 108.842 40.7597 110.301 40.9004 110.526C41.3249 111.202 41.407 112.058 41.7424 112.765C41.9781 111.006 43.2586 109.259 44.7478 108.377L47.2079 107.529H47.2091Z" fill="#2DC9AE"/>
<path d="M53.6773 121.386C53.5119 120.855 52.9034 119.775 52.4378 119.469C51.4188 118.799 49.1334 118.886 48.5318 118.477C48.3383 118.345 48.4744 118.031 48.4415 117.844C49.2026 118.005 52.303 117.31 52.7556 116.844C53.0288 116.563 52.9737 115.87 53.1015 115.496C53.288 114.949 53.6691 114.307 53.8239 113.601C53.9059 113.229 53.7394 111.972 54.3726 111.838C54.8757 111.733 54.7362 112.775 54.7971 113.105C54.9695 114.03 55.3999 116.264 56.1292 116.855C56.7519 117.358 59.5345 117.577 60.4527 117.844C61.0601 118.43 57.724 118.931 57.5247 118.995C56.2934 119.385 55.7212 120.057 55.2181 121.231C54.9543 121.845 54.7104 123.913 54.6001 124.003C54.3574 124.204 53.988 123.819 53.9013 123.548C53.6902 122.886 53.9271 122.188 53.6773 121.385V121.386ZM54.6001 120.925C54.6494 120.865 54.7491 119.873 55.0598 119.458C55.3072 119.126 56.7542 118.35 56.7542 118.23L55.2111 117.16L54.2953 115.692C54.1604 116.258 53.7031 116.976 53.295 117.387C52.8178 117.868 52.4179 117.889 51.984 118.306C52.8565 118.362 53.5026 119.13 53.9177 119.839C54.0068 119.99 54.3234 121.263 54.6013 120.926L54.6001 120.925Z" fill="#2DC9AE"/>
<path d="M147.031 73.0246H144.689V90.7429H147.031V73.0246Z" fill="#C681C2"/>
<path d="M146.808 57.0512C147.324 57.5871 147.013 58.8793 147.119 59.5747C147.35 61.0979 148.11 64.6111 149.084 65.752C150.544 67.4605 154.87 67.0407 156.945 67.7607C157.204 67.851 158.032 68.1735 157.725 68.5816C157.523 68.8501 152.22 69.6651 151.178 70.0555C150.224 70.4144 148.38 71.56 147.889 72.4418C146.944 74.1421 147.397 78.5594 146.756 79.4506C146.553 79.732 145.86 79.773 145.549 79.7003C145.03 79.5784 144.79 74.6522 144.532 73.7587C143.227 69.2312 138.107 70.2514 134.646 69.0881C133.938 67.3304 136.318 67.9988 137.367 67.8428C138.493 67.6751 141.886 66.6995 142.662 65.9819C143.031 65.6395 144.184 63.5991 144.408 63.0398C144.888 61.8343 145.337 56.9398 146.035 56.7698C146.209 56.7275 146.677 56.9152 146.807 57.0512H146.808ZM151.065 68.829C150.588 68.0762 149.552 67.9542 148.86 67.4594C147.609 66.5647 146.632 64.9054 146.374 63.4056L144.021 67.6071L141.197 68.3423L143.546 69.814C144.399 70.7955 145.75 71.6057 145.886 73.0258L147.509 70.3346C148.588 68.9392 149.224 68.6073 151.066 68.8301L151.065 68.829Z" fill="#2DC9AE"/>
<path d="M138.427 53.5462C138.29 53.708 135.097 54.1149 134.352 54.6438C133.747 55.073 133.128 56.4227 132.949 57.1391C132.855 57.5109 132.734 59.2276 132.654 59.3026C132.626 59.3284 132.005 59.3495 131.914 59.3226C131.564 59.2182 131.842 56.0287 131.041 55.087C130.027 53.8933 127.203 54.0598 126.395 53.4606C126.219 53.3293 126.132 52.9658 126.221 52.872C126.382 52.7019 129.996 52.5694 130.754 51.8084C131.637 50.9219 131.544 48.1533 132.116 46.9831C132.396 46.4097 132.762 46.8424 132.837 47.3583C133.1 49.1712 132.958 51.5106 135.07 52.2458C135.912 52.5389 137.45 52.4944 138.142 52.9036C138.389 53.049 138.583 53.3668 138.428 53.5474L138.427 53.5462ZM132.493 50.6663C132.24 50.3954 132.199 50.7272 132.137 50.902C131.671 52.2153 131.865 52.3337 130.43 52.9259C130.103 53.0608 129.083 53.0056 129.853 53.3938C130.402 53.6705 131.233 53.9719 131.651 54.4749C131.973 54.8631 131.952 55.4412 132.409 55.7507C132.915 54.5863 133.653 53.2906 135.038 53.1241C134.108 52.879 133.221 52.2001 132.685 51.4062C132.521 51.1623 132.518 50.6944 132.493 50.6663Z" fill="#2DC9AE"/>
<path d="M54 148C54 151.314 51.3137 154 48 154H47C43.6863 154 41 151.314 41 148V134H54V148ZM44 137V147.5C44 149.433 45.567 151 47.5 151C49.433 151 51 149.433 51 147.5V137H44Z" fill="#C681C2"/>
<path d="M131.748 48.0879H131.749C131.659 49.5782 131.55 50.8402 130.979 52.2461C130.272 52.3457 129.598 52.1133 128.906 52.084C126.056 51.9644 123.111 52.0861 120.277 52.0791C102.634 52.0357 84.8264 52.0925 67.1562 52.252C62.3745 52.2953 56.6993 51.8369 52.0547 52.2402C47.2681 52.6553 43.3441 57.8971 43.0439 62.4785C42.6148 69.0216 43.1029 76.5161 43.2119 83.1143C43.2541 85.6552 43.1674 88.2034 43.2061 90.7432H47.0557C47.3512 85.8522 46.5857 80.4132 47.2295 75.5938C47.8979 70.595 51.5372 66.7255 56.6719 66.4053C67.6535 65.7205 79.3461 66.9322 90.4004 66.415C92.9156 66.7164 95.1625 67.6128 97.0234 69.3389L98.2549 70.7256C99.5706 68.6114 102.698 66.6496 105.188 66.415C109.294 66.0281 113.85 66.4158 117.959 66.4053C126.097 66.3818 134.237 66.4367 142.373 66.4121C142.181 66.5891 142.107 66.9327 141.812 67.1602C140.963 67.8156 138.75 68.2465 137.657 68.3955C136.897 68.4999 135.943 68.1314 135.444 68.8008C135.332 69.3437 136.564 69.155 136.887 69.2031C138.22 69.3989 140.475 69.671 141.646 70.1494C141.884 70.2465 142.144 70.1871 142.064 70.5703C142.037 70.5711 141.822 70.7377 141.544 70.7354C129.384 70.5935 117.232 70.6873 105.048 70.7412C102.676 70.9757 100.18 74.0427 100.18 76.3457V90.7432H144.99C144.912 86.8208 145.092 82.8794 144.996 78.957C144.966 77.7363 145.034 76.3513 144.99 75.1904C145.211 75.8541 145.391 80.2729 145.608 80.4248C146.3 80.9079 146.203 78.8394 146.224 78.6553C146.476 76.4415 146.532 74.706 147.608 72.7256C148.001 72.6834 148.08 72.7537 148.239 73.0957C148.643 73.967 148.933 76.2669 148.994 77.2695C149.264 81.6657 148.796 86.3203 148.995 90.7422H152.229L152.383 69.6455C153.668 69.3606 155.087 69.0387 156.386 69.0293C156.311 69.1419 156.412 71.3058 156.392 71.7314C156.134 77.2498 155.855 84.1144 156.226 89.5928C156.253 89.9843 156.396 90.3494 156.386 90.7422H160.62C164.491 90.7422 167.872 96.2604 168.509 99.6387C169.07 102.617 168.989 111.336 168.686 114.515C168.447 117.005 167.307 119.446 165.778 121.386H170.475C170.681 121.386 171.674 121.942 171.868 122.148C172.208 122.508 172.443 123.172 172.514 123.658C172.822 125.808 172.727 130.909 172.561 133.172C172.52 133.731 172.464 134.287 172.163 134.776C171.952 135.118 171.031 135.891 170.573 136H153.73C153.279 135.978 152.83 135.938 152.384 135.859V136H148.226V135.859H51.2139V136H47.3574C47.3594 135.954 47.36 135.907 47.3623 135.86H43.2061V136H39.1279C41.5473 135.501 44.0254 135.264 46.4922 135.068C46.6985 134.969 46.8292 134.872 46.6758 134.626C46.4319 134.233 43.5161 134.104 42.8438 133.992C40.1175 133.54 37.2701 133.17 34.7373 132.167L34.9658 131.858H168.399V125.392L29.501 125.545C29.1129 124.42 28.8839 122.745 28.7314 121.542L33.1963 121.386C31.9885 119.632 31.2073 117.766 31.042 115.61C30.7266 111.484 30.7692 104.977 31.0342 100.822C31.3357 96.0876 34.5378 92.3743 39.0566 91.1113L39.0391 62.0176C39.5034 54.4858 45.6026 48.4737 53.1309 48.082L131.748 48.0879ZM40.5137 95.0557C38.5132 95.3394 36.6423 96.6576 35.7852 98.4893C34.6643 100.886 35.4173 104.009 35.1992 106.604L35.1982 106.603C34.6532 106.743 31.888 107.137 31.8105 107.451C31.6288 108.221 34.5566 108.351 35.043 108.45C35.5366 111.694 34.0971 115.902 36.209 118.758C38.6479 122.056 41.32 121.415 44.8154 121.38C47.768 121.351 50.7256 121.415 53.6758 121.386C53.9255 122.189 53.6895 122.886 53.9004 123.549C53.9872 123.82 54.3559 124.204 54.5986 124.004C54.7077 123.914 54.953 121.847 55.2168 121.232C55.5732 121.405 56.1218 121.385 56.5205 121.392C90.6144 121.973 124.766 120.887 158.86 121.472C162.4 120.372 164.441 117.592 164.702 113.916C164.952 110.398 164.99 104.49 164.684 101.002C164.421 98.0002 162.594 95.2872 159.397 95.0479L40.5137 95.0557ZM55.7744 70.7402C52.9249 71.0439 51.0615 74.1378 51.0615 76.8066V90.7422H96.0244L95.8311 75.46C95.3409 73.1066 93.3987 70.8459 90.873 70.7168L55.7744 70.7402Z" fill="#C681C2"/>
<path d="M169.206 121.005C171.319 121.112 173 122.86 173 125V133L172.995 133.206C172.891 135.251 171.251 136.891 169.206 136.995L169 137H39V136H43V135H169C170.105 135 171 134.105 171 133V125C171 123.895 170.105 123 169 123H39V122H29V121H169L169.206 121.005Z" fill="#C681C2"/>
<path d="M27.4739 111.345C29.0605 110.917 28.7685 113.318 28.8576 114.074C29.4557 119.166 30.3269 127.814 34.8837 130.927C38.8014 133.604 44.3679 133.779 48.9423 134.237C49.8065 134.7 49.7701 135.905 48.7746 136.165C47.3346 136.542 45.123 136.494 43.5165 136.753C39.8967 137.337 34.8696 138.631 32.4435 141.545C29.6644 144.884 28.6759 151.744 28.1892 155.994C28.0896 156.861 28.1423 159.723 27.6838 160.164C27.3684 160.468 26.7774 160.518 26.4209 160.263C25.8569 159.857 25.9437 157.328 25.8475 156.495C25.2893 151.655 24.4017 143.985 20.926 140.374C17.4363 136.747 11.2918 136.606 6.59192 136.171C4.19978 133.669 9.73337 134.044 11.2144 133.844C15.3432 133.286 20.6434 132.384 22.9758 128.572C25.192 124.949 26.0011 119.588 26.5147 115.41C26.632 114.453 26.4139 111.631 27.4728 111.345H27.4739ZM40.3774 135.036C32.5385 134.283 28.8623 128.21 27.7694 121.005C26.8372 124.637 25.9003 129.313 22.9218 131.856C20.5942 133.844 18.5315 134.206 15.7395 135.029C15.4968 135.101 15.4487 134.933 15.4945 135.367C22.8257 136.453 26.0633 143.419 26.9345 150.066C28.1423 144.774 29.6597 139.873 34.7559 137.176C36.5617 136.221 38.2011 135.938 40.0432 135.28C40.2039 135.223 40.4267 135.261 40.3774 135.035V135.036Z" fill="#2DC9AE"/>
</svg>
