<svg width="200" height="200" viewBox="0 0 200 200" fill="none" xmlns="http://www.w3.org/2000/svg">
<path d="M133.573 46.0183C132.74 46.3783 132.802 47.3246 133.69 47.4243C133.773 47.6002 133.85 47.7737 133.877 47.9707C136.583 67.5605 135.941 88.1693 135.793 108.063C135.665 125.542 135.431 142.997 134.974 160.445C134.896 163.394 135.117 166.824 134.86 169.705C134.656 171.998 133.013 173.989 130.702 174.335L111.253 174.34C107.699 173.776 107.122 171.137 106.748 168.066C106.288 164.296 106.089 160.479 105.692 156.701C103.667 137.413 101.734 118.109 99.8351 98.8108C99.6299 96.7259 99.2781 94.6375 99.25 92.5408C99.1022 92.3473 99.0365 92.5525 99.0166 92.7144C98.9697 93.0779 99.0471 93.5059 99.0166 93.887C98.3869 101.501 97.5356 109.122 96.7781 116.726C95.2255 132.321 93.6225 147.982 91.9293 163.553C91.5341 167.189 92.0465 173.908 87.0137 174.34C81.296 174.833 74.8782 173.964 69.0867 174.335C64.911 173.513 65.0142 170.103 64.9215 166.664C64.7878 161.668 64.7796 156.651 64.687 151.664C64.6565 150.009 64.8136 148.308 64.5744 146.68C65.7658 147.054 66.7754 147.428 67.8542 148.085C67.9094 151.151 67.9023 154.223 67.9668 157.289C68.0454 161.063 67.9821 165.152 68.2013 168.89C68.2553 169.816 68.3983 170.512 69.3106 170.946C75.135 171.179 81.0192 171.02 86.8636 171.028C88.7315 170.647 88.1476 166.822 88.5885 165.43H71.8951C71.8646 165.43 71.4553 165.183 71.3756 165.129C70.4011 164.475 70.3988 163.106 71.3756 162.45C71.4553 162.396 71.8646 162.15 71.8951 162.15H88.9403L91.8695 132.501C93.6366 132.172 94.631 129.407 93.1617 128.103C93.0855 128.035 92.4968 127.594 92.4546 127.58C92.4687 127.25 92.43 126.915 92.4546 126.584C93.7691 109.778 96.112 93.0251 97.3878 76.2086C97.3691 74.6654 98.87 73.5174 100.244 74.4942C100.99 75.0242 101.015 76.0596 101.121 76.8981C101.58 80.5027 101.793 84.3067 102.144 87.9465C103.284 99.7923 104.422 111.51 105.574 123.304C106.132 129.026 106.607 134.757 107.214 140.472C107.063 140.433 106.783 140.48 106.623 140.522C104.982 140.958 106.051 143.252 107.449 142.347L109.458 162.135L127.767 162.158C128.868 162.421 129.553 163.641 128.888 164.671C128.755 164.876 128.116 165.432 127.891 165.432H109.675C110.21 166.883 109.439 170.731 111.498 171.049C117.825 171.007 124.189 171.172 130.494 170.964C131.892 170.307 131.513 168.972 131.583 167.717C132.084 158.614 132.007 149.415 132.162 140.29C132.534 118.462 133.044 96.5277 132.514 74.676C132.367 68.637 132.036 62.6437 131.464 56.6246C130.773 49.3614 129.885 42.09 128.771 34.8866C129.396 34.6357 130.406 34.6017 130.296 33.7797C130.227 33.2625 129.011 33.1664 128.536 33.0116C128.246 31.418 126.885 31.2621 125.491 31.3711C124.396 30.29 123.954 29.4023 123.733 27.8556C125.223 27.9471 126.835 27.6434 128.273 28.0596C130.158 28.6049 131.404 30.1903 131.902 32.0477C132.44 36.7007 133.202 41.3431 133.574 46.0195L133.573 46.0183ZM109.407 162.642C108.698 162.802 108.661 163.872 109.316 164.089C110.699 164.55 110.796 162.329 109.407 162.642Z" fill="#C681C2"/>
<path d="M121.389 27.8544C120.755 29.5278 120.691 30.0777 119.281 31.3699H95.9678V37.2295H115.063L114.594 35.0027C116.36 35.847 117.42 36.3888 118.577 38.0492C118.389 38.1676 118.442 38.5006 118.46 38.6906C118.816 42.4993 120.812 46.1848 124.165 48.1044C125.501 48.8701 126.813 49.1562 128.181 49.7121C129.248 50.1471 129.861 51.1802 129.22 52.2695C128.39 53.6814 126.439 52.7503 125.256 52.286C120.209 50.3042 116.07 45.9808 115.179 40.5105C115.054 40.4671 114.924 40.6278 114.887 40.6278H105.339L105.306 56.8252C104.49 61.8088 101.748 66.4254 97.4089 69.0814C96.5165 69.6278 94.9663 70.5507 93.9239 70.3853C92.7184 70.1942 92.3103 68.6147 92.9869 67.7059C93.3891 67.1665 94.8936 66.7033 95.5773 66.3128C98.5721 64.602 101.942 59.9185 101.942 56.3901V40.6289H95.9678V61.1955C95.9678 61.7994 94.9663 62.415 94.387 62.4362C93.7468 62.4596 92.6867 61.8792 92.6867 61.1955V40.6289H87.064C86.9585 41.4568 86.9292 42.341 86.0368 42.7068C84.6215 43.2873 83.3797 42.0736 83.667 40.6289H81.6759C81.0837 45.9362 77.7816 51.0289 72.9692 53.4234C71.9138 53.9487 70.5653 54.6324 69.8195 53.2498C68.8017 51.3631 70.7834 50.9187 71.9138 50.2585C75.4704 48.1806 77.7828 44.7179 78.3949 40.6289H74.1195C74.0679 40.6289 73.3245 40.1962 73.2389 40.1036C72.4356 39.2476 72.8578 37.6657 73.9413 37.2858L84.2544 37.2319C84.4761 35.7872 84.258 32.4757 86.5082 32.8041C88.64 33.1148 87.8274 35.82 87.6515 37.2319H92.6891V31.5482C92.6891 31.5353 92.5261 31.3723 92.5132 31.3723H72.9492C72.4649 31.3723 71.6464 32.0254 71.5139 32.5144C69.8969 44.046 68.2435 55.6068 67.6935 67.1536C67.6478 68.1046 67.52 69.0474 67.4977 69.9808C67.452 71.8347 67.5423 73.698 67.5024 75.5519C67.153 75.3314 66.6018 75.417 66.4177 75.8134C66.2172 76.2449 66.4963 77.4304 66.4459 78.0695C66.3216 79.6373 65.2721 81.4502 63.9881 82.3484C63.9423 73.0073 64.4805 63.692 65.394 54.4002C66.0859 47.3598 66.7918 39.4423 68.0031 32.5179C68.4721 29.8408 70.0681 28.2027 72.7112 27.8521L121.39 27.8568L121.389 27.8544Z" fill="#C681C2"/>
<path d="M67.1495 88.2056L67.6185 139.182C66.5221 140.514 65.9041 140.898 64.4559 141.76L63.8696 85.511C65.1865 85.9706 66.4963 87.0107 67.1495 88.2068V88.2056Z" fill="#C681C2"/>
<path d="M67.6185 139.182C69.3669 137.058 70.1361 134.986 70.312 132.208C70.3906 130.956 70.1584 129.427 70.3237 128.232C70.4046 127.646 71.1035 127.518 71.4542 127.846C71.6769 128.055 72.2175 131.48 72.4309 132.2C74.5487 139.349 80.7858 138.458 86.3593 140.883C87.3267 141.304 88.0913 142.127 86.7732 142.698C84.7153 143.59 82.2774 143.735 80.1913 144.904C76.1822 147.151 75.2499 152.601 74.9931 156.813C74.9333 157.797 75.5196 160.636 73.817 159.728C72.8883 155.346 71.9596 150.595 67.8519 148.088C66.7731 147.429 65.7634 147.056 64.5721 146.682C62.5938 146.06 60.5406 145.644 58.4474 145.602C57.7063 145.35 57.8166 144.59 58.4486 144.249C59.4019 143.734 61.2782 143.388 62.459 142.87C63.1872 142.55 63.7993 142.15 64.4548 141.76C65.903 140.9 66.5209 140.515 67.6173 139.182H67.6185ZM67.7346 141.057C66.8716 141.88 65.6204 142.71 64.5721 143.284C63.7524 143.732 62.8494 144.033 62.0521 144.454C61.9442 144.511 61.773 144.511 61.7601 144.688C62.7005 144.808 63.6656 145.004 64.5721 145.276C65.5465 145.569 66.9454 146.111 67.8519 146.565C71.0285 148.156 72.6983 150.93 73.7103 154.244C73.7642 154.421 73.5754 154.596 73.9424 154.533C74.1547 150.289 76.0109 145.747 79.9146 143.69C81.4894 142.861 83.205 142.496 84.9006 141.997C85.0718 141.947 85.1058 142.064 85.0718 141.76C83.4641 141.443 81.8389 140.934 80.2734 140.407C76.4014 139.106 73.0126 137.8 71.5984 133.557L70.9288 136.107C70.3425 137.837 69.0538 139.796 67.7334 141.056L67.7346 141.057Z" fill="#2DC9AE"/>
<path d="M48.7252 93.16C49.1673 93.5997 48.9281 94.8051 48.9937 95.4102C49.3901 99.0406 51.278 103.532 55.2731 104.246C56.1092 104.395 57.5726 104.227 58.1636 104.401C58.5365 104.511 58.5728 105.13 58.4227 105.434C58.2867 105.709 56.0482 106.115 55.5276 106.286C49.8192 108.162 50.9332 112.555 50.5123 117.536C50.1312 118.022 49.6316 118.163 49.1016 117.773C48.5645 115.869 48.4719 113.791 47.4892 112.033C45.8828 109.162 41.6836 108.426 38.6501 108.453C38.0954 108.287 37.8058 107.753 38.2091 107.272C38.4026 107.041 42.2617 106.678 43.2151 106.272C46.0469 105.067 47.1867 101.677 47.3579 98.8143C47.4435 97.3732 47.1035 94.974 47.4036 93.704C47.5479 93.0955 48.2045 92.6393 48.7264 93.1588L48.7252 93.16ZM53.9117 105.317C52.168 104.87 50.8957 103.45 49.8333 102.071L48.5235 99.6914C48.4227 102.021 47.6006 104.493 45.8828 106.133L43.4848 107.658C45.4161 108.215 47.4541 109.366 48.4989 111.14L49.3408 112.933C49.3877 110.702 49.9611 108.31 51.6298 106.726L53.9105 105.318L53.9117 105.317Z" fill="#2DC9AE"/>
<path d="M126.804 21.6712C126.99 21.4883 128.935 21.1963 129.406 21.0509C132.382 20.1339 135.009 17.7054 135.763 14.6367C135.966 13.8135 135.996 12.1531 136.293 11.5339C136.492 11.1188 136.965 10.8503 137.385 11.0907C138.065 11.48 137.733 13.1955 137.791 13.9659C138.049 17.3865 139.572 19.8982 142.797 21.1447C143.528 21.4273 145.664 21.6665 145.111 22.8157C144.932 23.1874 143.273 23.4067 142.747 23.6142C139.983 24.7083 138.259 28.4935 137.407 31.1624C137.284 31.5482 137.096 32.8791 136.775 32.9905C136.563 33.0644 136.147 33.0433 135.963 32.9026C135.732 32.7267 135.415 30.698 135.272 30.1973C134.46 27.3537 132.287 24.645 129.503 23.5451C128.936 23.3211 127.119 22.9599 126.83 22.7043C126.586 22.4897 126.603 21.867 126.805 21.6689L126.804 21.6712ZM141.889 22.349C140.103 21.5997 138.652 20.4364 137.746 18.6998C137.373 17.9857 137.165 17.2012 136.794 16.4882C135.59 19.2685 133.07 21.2233 130.291 22.288C132.544 23.2484 134.432 24.8947 135.583 27.0735C135.908 27.6879 136.095 28.3481 136.38 28.9731C136.432 29.0892 136.451 29.2475 136.618 29.2616C137.348 27.0547 138.644 25.019 140.367 23.4595L141.89 22.349H141.889Z" fill="#2DC9AE"/>
<path d="M123.732 27.8544C123.951 29.4011 124.394 30.2888 125.49 31.3699C126.561 32.4288 127.149 32.5578 128.535 33.0104C129.01 33.1652 130.226 33.2614 130.295 33.7785C130.405 34.6005 129.393 34.6345 128.769 34.8855C125.689 36.1226 123.657 38.3869 122.618 41.5635C122.349 42.3855 122.238 43.7282 121.944 44.4048C121.693 44.9829 120.867 45.0228 120.631 44.4904C120.413 43.9991 120.425 42.7666 120.301 42.1264C120.022 40.6981 119.408 39.2406 118.578 38.0492C117.422 36.3888 116.361 35.847 114.595 35.0027C114.159 34.794 113.325 34.4223 113.891 33.7715C114.045 33.5956 116.96 32.865 117.601 32.5625C118.325 32.2213 118.704 31.8988 119.279 31.3711C120.69 30.0789 120.753 29.5289 121.388 27.8556C121.395 27.838 121.562 27.7583 121.628 27.5742C121.854 26.9503 122.265 24.1595 123.27 24.9757C123.766 25.379 123.623 27.0899 123.731 27.8544H123.732ZM121.154 31.3711C120.284 32.4605 119.167 33.2145 117.916 33.8149C117.577 33.9779 116.897 34.1362 116.654 34.2933C116.549 34.3601 116.549 34.4891 116.586 34.5325C116.636 34.5923 117.634 35.1962 117.876 35.412C119.766 37.1017 120.509 38.5429 121.283 40.9104C121.326 41.0405 121.32 41.1942 121.505 41.2153C122.227 38.2098 124.569 35.5116 127.246 34.0658C126.673 33.6354 125.963 33.4185 125.335 32.9905C124.809 32.6329 123.96 31.8929 123.614 31.3711C123.527 31.2374 123.175 30.5116 123.087 30.3169C122.911 29.9241 122.809 29.441 122.675 29.0282C122.099 29.7541 121.734 30.6464 121.153 31.3711H121.154Z" fill="#2DC9AE"/>
<path d="M67.5012 75.5496C67.9374 75.8251 68.0535 76.7374 68.2646 77.1877C69.3153 79.4286 70.9686 80.3139 73.4124 80.4757C74.0456 80.518 75.7881 80.2682 76.1047 80.7114C76.7801 81.6577 75.3835 81.8196 74.8946 82.0658C72.3019 83.3709 70.1654 85.3128 69.6413 88.2948C69.517 88.9995 69.694 90.9707 68.6422 90.7655C68.0395 90.6482 67.493 88.833 67.1494 88.2045C66.4963 87.0084 65.1853 85.9695 63.8696 85.5086C63.3314 85.321 62.3733 85.1135 61.8046 85.0548C61.0858 84.9809 58.8942 85.3351 59.5942 83.867C59.7854 83.4659 61.8421 83.2713 62.439 83.0801C62.9385 82.9207 63.5588 82.6439 63.9869 82.3437C65.2709 81.4455 66.3204 79.6326 66.4447 78.0648C66.4951 77.4258 66.216 76.2414 66.4165 75.8087C66.6006 75.4124 67.1518 75.3256 67.5012 75.5472V75.5496ZM67.2667 80.9401C66.6042 82.1948 65.1876 83.3287 63.9869 84.0464C65.0176 84.5307 66.2864 84.9845 67.1494 85.7455C67.6079 86.15 67.9879 86.727 68.2622 87.2687C69.0854 84.9657 70.4902 83.0156 72.6572 81.8207C70.7846 81.5592 69.0069 80.9401 67.7944 79.4192C67.6595 79.9246 67.5129 80.4769 67.2679 80.9424L67.2667 80.9401Z" fill="#2DC9AE"/>
<path d="M133.573 46.0183C133.942 45.8588 134.497 45.7768 134.94 45.5692C137.124 44.549 138.621 42.4407 139.432 40.2197C139.687 39.5232 140.245 36.6116 140.533 36.4005C141.801 35.4765 141.701 38.3588 141.788 38.9134C142.087 40.8154 142.825 42.4078 144.477 43.489C145.015 43.8408 146.689 44.3485 146.684 45.0216C146.678 45.765 146.012 45.7193 145.556 45.9937C144.403 46.6867 143.143 48.6931 142.572 49.9231C142.142 50.8495 141.762 52.6131 141.288 53.3261C141.102 53.6075 140.908 53.7213 140.566 53.6157C140.194 53.502 139.867 51.7571 139.647 51.2494C138.358 48.2697 136.644 47.7573 133.689 47.4243C132.801 47.3246 132.739 46.3771 133.571 46.0183H133.573ZM144.466 45.0826C143.036 44.488 142.045 43.1782 141.318 41.8438L140.72 40.1599C140.184 42.1452 139.268 44.0354 137.663 45.364L136.034 46.3689C137.683 46.7653 139.046 47.7561 139.994 49.1457L140.835 50.7053C141.43 48.4843 142.667 46.5143 144.467 45.0826H144.466Z" fill="#2DC9AE"/>
<path d="M29.5166 114.721C33.6078 114.137 35.3398 119.781 31.2638 121.624C26.9826 123.56 25.1216 115.347 29.5166 114.721Z" fill="#2DC9AE"/>
<path d="M47.8622 130.201C49.7255 128.388 52.7251 130.874 51.2182 133.03C49.3749 135.67 45.6319 132.371 47.8622 130.201Z" fill="#2DC9AE"/>
<path d="M32.2101 93.9726C34.2868 93.6267 34.7793 96.9252 32.7589 97.2219C30.5849 97.5409 30.2976 94.2915 32.2101 93.9726Z" fill="#2DC9AE"/>
<path d="M30.3339 63.9723C31.9709 63.8151 32.3555 66.5626 30.5309 66.6365C28.9713 66.6998 28.8212 64.1177 30.3339 63.9723Z" fill="#2DC9AE"/>
<path d="M43.9199 81.0245C43.235 81.8665 41.5687 81.1934 42.2125 79.9586C42.895 78.6488 44.7712 79.9774 43.9199 81.0245Z" fill="#2DC9AE"/>
<path d="M55.863 119.998C57.235 119.926 57.0896 122.328 55.401 121.929C54.4348 121.702 54.7995 120.053 55.863 119.998Z" fill="#2DC9AE"/>
<path d="M92.4534 127.58C92.4956 127.594 93.0842 128.035 93.1604 128.103C94.6286 129.407 93.6354 132.172 91.8682 132.501C88.1452 133.196 87.818 127.741 91.5129 127.518C91.6595 127.508 92.3689 127.552 92.4534 127.58Z" fill="#2DC9AE"/>
<path d="M107.214 140.47C107.901 140.645 108.236 141.835 107.449 142.345C106.051 143.251 104.982 140.957 106.623 140.521C106.783 140.479 107.063 140.432 107.214 140.47Z" fill="#2DC9AE"/>
<path d="M109.407 162.642C110.794 162.329 110.699 164.55 109.316 164.089C108.661 163.871 108.699 162.802 109.407 162.642Z" fill="#2DC9AE"/>
<path d="M67.8518 146.565C66.9442 146.11 65.5465 145.569 64.572 145.276V143.284C65.6215 142.711 66.8715 141.88 67.7346 141.057L67.8518 146.565Z" fill="#C681C2"/>
<path d="M123.615 31.3711H121.154C121.735 30.6453 122.1 29.7529 122.676 29.0282C122.81 29.441 122.912 29.9241 123.088 30.3169C123.176 30.5128 123.527 31.2386 123.616 31.3711H123.615Z" fill="#C681C2"/>
<path d="M67.1495 85.7443C66.2876 84.9833 65.0176 84.5307 63.9869 84.0452C65.1876 83.3275 66.6042 82.1936 67.2667 80.9389L67.1495 85.7431V85.7443Z" fill="#C681C2"/>
<path d="M87.6163 108.152C87.7934 108.099 87.9787 108.104 88.1581 108.146C88.728 109.017 88.6565 110.145 89.0833 111.205C89.496 112.231 90.0578 113.025 91.0123 113.613C91.581 113.962 93.1734 114.349 93.2437 114.999C93.3317 115.804 92.2423 115.85 91.7123 116.116C90.2677 116.842 89.6133 118.294 89.3225 119.819C89.1935 120.493 89.353 122.18 88.4126 122.181C87.641 122.182 87.4534 120.197 87.1672 119.569C86.5622 118.236 85.0589 117.179 83.6083 117.036C82.9353 116.969 80.7518 117.393 81.2971 116.128C81.5598 115.517 82.6749 115.53 83.3164 115.335C85.78 114.587 86.9456 112.817 87.1813 110.295C87.2364 109.706 86.9304 108.358 87.6187 108.153L87.6163 108.152ZM90.6956 115.043C89.5043 114.561 88.8429 113.454 88.1194 112.464C87.9998 113.442 87.1473 114.517 86.4156 115.156C86.1224 115.413 85.6124 115.645 85.379 115.852C85.2899 115.931 85.2512 116.027 85.3063 116.094C85.3567 116.155 86.3781 116.698 86.6489 116.92C87.2305 117.397 87.7043 118.025 88.2331 118.557C88.497 117.009 89.5852 116.026 90.6945 115.043H90.6956Z" fill="#2DC9AE"/>
<path d="M80.1878 133.239C80.5689 132.765 81.6958 132.889 81.8857 133.522C82.2786 134.835 80.2042 135.21 80.04 134.074C80.0037 133.817 80.0189 133.449 80.1878 133.238V133.239Z" fill="#2DC9AE"/>
<path d="M109.877 151.623C111.215 151.347 111.22 153.651 109.757 153.218C109.113 153.028 109.153 151.773 109.877 151.623Z" fill="#2DC9AE"/>
<path d="M99.4481 33.388C101.73 32.8639 102.394 35.8986 100.516 36.4474C99.0435 36.8777 97.8205 35.4812 98.5604 34.1397C98.6906 33.904 99.1842 33.4478 99.4481 33.3869V33.388Z" fill="#C681C2"/>
</svg>
