<svg width="200" height="200" viewBox="0 0 200 200" fill="none" xmlns="http://www.w3.org/2000/svg">
<path d="M157.74 25.0507C159.327 24.6227 159.035 27.0242 159.124 27.7805C159.722 32.8721 160.593 41.5201 165.15 44.6334C169.068 47.3105 174.634 47.4852 179.208 47.9426C180.073 48.4058 180.036 49.6112 179.041 49.8715C177.601 50.2479 175.389 50.1999 173.783 50.459C170.163 51.043 165.136 52.3375 162.71 55.2515C159.93 58.59 158.942 65.4498 158.455 69.7005C158.356 70.5671 158.408 73.4295 157.95 73.8704C157.634 74.1741 157.043 74.2245 156.687 73.9689C156.123 73.5631 156.21 71.0338 156.114 70.2012C155.555 65.3607 154.668 57.6906 151.192 54.0801C147.702 50.4531 141.558 50.3124 136.858 49.8774C134.466 47.375 139.999 47.7503 141.48 47.5497C145.609 46.9916 150.91 46.0898 153.242 42.2776C155.458 38.6554 156.267 33.2942 156.781 29.1162C156.898 28.1593 156.68 25.3368 157.739 25.0507H157.74ZM170.644 48.7423C162.805 47.9895 159.128 41.9165 158.036 34.7107C157.103 38.3435 156.166 43.0187 153.188 45.5622C150.86 47.5497 148.798 47.9121 146.006 48.7353C145.763 48.8068 145.715 48.6391 145.761 49.073C153.092 50.1588 156.329 57.1254 157.201 63.7718C158.408 58.4797 159.926 53.5794 165.022 50.8823C166.828 49.9266 168.467 49.644 170.309 48.9862C170.47 48.9287 170.693 48.9674 170.644 48.7411V48.7423Z" fill="#2DC9AE"/>
<path d="M37.8338 69.9796C38.4095 69.8588 38.7519 70.064 39.0123 70.5694C39.3312 77.3261 39.9222 84.3618 47.237 86.8935C48.2959 87.2605 50.5778 87.3015 50.5778 88.5703C50.5778 90.2483 48.3815 89.4169 47.3156 89.492C41.9298 89.8743 38.7062 95.6987 37.6579 100.374C37.3917 101.559 37.3342 103.406 37.0024 104.394C36.6975 105.299 35.2998 105.281 35.0746 104.232C34.8424 103.151 34.8753 101.674 34.656 100.475C33.3098 93.1013 29.1459 88.9514 21.5789 88.1681C20.7851 87.8409 20.8109 86.6332 21.6364 86.3552C22.5593 86.0445 24.385 85.98 25.5225 85.7314C31.776 84.3688 35.9599 80.763 36.857 74.187C36.9696 73.3591 36.8769 70.7793 37.3002 70.288C37.4304 70.1379 37.6415 70.0183 37.835 69.9784L37.8338 69.9796ZM44.5588 87.821C40.7126 86.2474 38.7179 82.1362 37.7963 78.2982C36.1734 83.0754 31.973 86.5065 27.0234 87.4012C31.8065 89.0065 35.0535 93.1529 36.1265 98.0076C37.3073 94.349 39.3992 91.1032 42.6755 89.0241C43.222 88.677 43.8728 88.4894 44.3477 88.1951C44.5212 88.0872 44.6385 88.2021 44.5599 87.821H44.5588Z" fill="#2DC9AE"/>
<path d="M163.919 89.3489C164.336 89.2844 164.768 89.5893 164.893 89.9798C165.085 91.4385 165.091 92.9418 165.323 94.3935C166.087 99.172 168.74 103.434 173.564 104.857C174.328 105.082 176.835 105.36 177.074 105.855C177.286 106.296 177.224 106.986 176.698 107.148C169.884 107.967 164.519 110.942 163.041 118.041C162.841 119.006 162.717 121.967 162.058 122.399C160.191 123.622 160.689 119.788 160.625 118.967C160.138 112.828 158.899 108.927 153.108 106.276C152.232 105.875 150.811 105.936 150.941 104.619C151.095 103.077 153.705 103.962 154.862 103.85C159.939 103.355 162.045 97.1621 162.774 92.8902C162.946 91.8783 162.665 89.5436 163.92 89.3489H163.919ZM163.963 97.338C163.69 97.0495 163.68 97.4271 163.615 97.5725C162.129 100.856 161.163 103.555 157.619 105.271C157.243 105.454 156.264 105.458 156.721 105.869C157.178 106.279 158.007 106.684 158.52 107.208C160.342 109.077 161.376 111.867 161.963 114.37L163.562 111.713C165.496 109.234 168.204 107.099 171.313 106.353C171.396 105.961 171.259 106.086 171.097 105.98C170.72 105.735 170.166 105.582 169.759 105.32C166.973 103.529 165.383 101.1 164.124 98.0955C164.035 97.8833 163.99 97.365 163.964 97.3368L163.963 97.338Z" fill="#2DC9AE"/>
<path d="M65.0597 52.0409C64.4968 52.6049 62.5502 51.9424 61.7142 52.1183C58.3699 52.8242 57.2793 57.9134 56.9909 60.7546C55.1065 62.4983 55.2636 59.4776 54.9704 58.2851C54.3114 55.6021 53.045 53.3202 50.5168 52.0503C49.8308 51.7055 47.427 51.1837 47.2605 50.6267C47.169 50.3206 47.2194 49.5784 47.5091 49.3954C48.0332 49.0648 50.5028 48.7153 51.4467 48.3635C53.677 47.5321 55.1545 46.0347 55.7983 43.6965C56.0539 42.769 56.1102 39.8386 56.7868 39.5091C57.5103 39.1573 58.0884 39.5243 58.3089 40.249C58.5657 41.098 58.4707 42.6517 58.6642 43.734C59.0465 45.8717 59.8497 48.1114 61.7728 49.3087C62.5596 49.7988 64.634 50.3511 65.0245 50.7322C65.3528 51.0524 65.354 51.7419 65.0585 52.0385L65.0597 52.0409ZM56.2474 55.5869C56.6227 53.3636 58.4731 51.8228 60.2543 50.6607C58.8073 49.3591 57.4787 47.7444 57.25 45.7345C56.618 46.3173 56.3096 47.1522 55.7444 47.8171C54.6445 49.1093 53.2338 49.7613 51.7422 50.4954C52.7401 51.0254 53.5715 51.7501 54.3325 52.5803L56.2498 55.588L56.2474 55.5869Z" fill="#2DC9AE"/>
<path d="M109.631 190.917C109.205 190.51 108.425 189.989 107.887 189.738C107.152 189.394 105.58 189.19 105.188 188.931C104.625 188.558 104.856 187.631 105.503 187.423C105.897 187.298 106.321 187.389 106.72 187.305C110.833 186.438 112.171 184.312 112.843 180.234C113.022 179.145 112.702 176.388 114.501 178.115C114.504 181.92 115.813 186.156 119.802 187.342C120.834 187.648 122.758 187.432 122.191 189.083C122.034 189.54 120.224 189.6 119.676 189.739C116.09 190.649 114.556 193.218 113.91 196.665C113.78 197.358 114.104 198.352 113.075 198.513C111.785 198.713 111.994 196.102 111.811 195.166C111.514 193.651 110.753 191.991 109.631 190.917ZM113.862 184.011C113.543 183.705 113.413 184.632 113.287 184.854C112.415 186.403 111.114 187.843 109.355 188.356C111.019 189.562 112.498 191.162 113.032 193.196C113.63 192.589 113.924 191.719 114.463 191.04C115.397 189.861 116.608 189.192 117.872 188.436C116.413 187.708 115.362 186.672 114.464 185.333C114.242 184.999 113.916 184.061 113.863 184.011H113.862Z" fill="#2DC9AE"/>
<path d="M66.6427 81.7668C66.407 81.5311 66.3167 79.812 66.1912 79.2961C65.7902 77.6509 64.8439 75.9635 63.2597 75.2142C62.4705 74.8413 60.9977 74.8636 60.9438 73.8739C60.8922 72.9452 63.0345 72.978 63.8765 72.6508C65.395 72.0622 66.6509 70.641 67.1833 69.1107C67.4753 68.2723 67.4823 65.0394 68.9317 66.2026C69.3866 66.5673 69.3303 68.7847 69.5191 69.622C69.8662 71.1546 70.5311 72.4515 71.9254 73.2278C72.5246 73.5608 73.92 73.8387 74.0877 74.4121C74.4875 75.7829 72.4026 75.437 71.4422 75.7079C69.6821 76.2039 68.8636 77.57 68.4861 79.2644C68.3547 79.8507 68.336 81.3657 68.0932 81.7105C67.8177 82.101 66.9323 82.0576 66.6415 81.7668H66.6427ZM67.4354 77.1302C67.4565 77.1103 67.5175 76.7515 67.6312 76.5779C68.3582 75.4628 69.1263 74.8624 70.2743 74.2081C69.3796 73.3673 68.4568 72.3788 68.2715 71.1182C67.4847 72.1595 66.8163 72.9241 65.7187 73.6569C65.2661 73.9583 64.6551 73.8258 65.0948 74.3804C65.4736 74.8577 66.1209 75.2705 66.5747 75.9072C66.896 76.3575 66.9136 76.6506 67.1047 77.0212C67.1962 77.1971 67.385 77.1783 67.4354 77.1302Z" fill="#2DC9AE"/>
<path d="M136.778 75.9248C136.503 75.5413 136.584 72.9768 136.36 72.0868C136.007 70.6808 135.225 69.5903 133.851 69.0837C133.186 68.8387 131.065 68.6147 130.812 68.1151C130.125 66.7631 132.635 66.8522 133.478 66.6013C135.48 66.0056 136.484 64.962 137.029 62.9709C137.37 61.7267 137.239 60.4228 137.742 59.3428C139.376 58.8514 138.803 60.8707 138.917 61.8475C139.104 63.4622 139.53 65.5178 141.077 66.3679C141.738 66.7315 143.509 66.9777 143.76 67.1911C144.029 67.4198 143.982 68.0049 143.843 68.2817C143.613 68.7425 141.757 68.8926 141.086 69.1975C139.732 69.8131 139.121 70.974 138.705 72.326C138.469 73.0894 138.235 75.6269 138.068 75.8626C137.802 76.2402 136.971 76.1886 136.779 75.9224L136.778 75.9248ZM138.076 65.4416C137.844 65.3947 137.864 65.4087 137.73 65.5483C137.488 65.8027 137.329 66.2624 136.968 66.5849C136.733 66.7948 136.152 67.1466 135.854 67.3131C135.596 67.4573 134.917 67.3858 135.346 67.7927C136.217 68.6205 137.165 69.2807 137.662 70.4498C138.147 69.5575 138.751 68.7906 139.502 68.1081C139.636 67.9873 139.901 67.9604 139.915 67.9428C140.157 67.6273 139.651 67.5839 139.502 67.4491C138.91 66.9144 138.266 66.2448 138.076 65.4416Z" fill="#2DC9AE"/>
<path d="M151.273 142.762C151.913 143.012 152.09 143.224 151.943 144.013C151.812 144.708 149.772 144.741 149.027 144.942C146.836 145.531 145.002 146.858 143.591 148.606C142.034 150.536 141.947 151.798 141.421 154.117C141.364 154.365 141.437 154.577 141.294 154.905C140.819 155.991 139.747 155.716 139.583 154.618C139.503 154.085 139.646 153.424 139.582 152.866C139.18 149.401 138.036 145.592 134.744 143.844C133.876 143.383 131.866 143.144 132.488 141.764C132.783 141.108 134.686 141.208 135.539 140.971C136.529 140.697 136.958 140.337 137.747 139.755C138.663 139.081 139.22 138.469 139.751 137.417C140.113 136.7 140.443 135.692 140.669 134.911C140.927 134.021 140.965 132.187 141.693 131.759C143.204 130.871 143.142 133.904 143.336 134.75C143.992 137.627 145.673 140.387 148.351 141.759C149.376 142.285 150.296 142.378 151.274 142.761L151.273 142.762ZM140.919 139.256C140.608 139.693 139.31 141.119 138.915 141.426C138.643 141.638 136.749 142.508 136.747 142.679C138.7 144.36 140.074 146.621 140.753 149.108C141.48 148.348 141.869 147.384 142.589 146.603C143.094 146.056 144.136 145.186 144.759 144.766C145.505 144.264 146.424 143.839 147.264 143.515C144.888 141.993 142.858 139.847 142.086 137.085L140.919 139.256Z" fill="#2DC9AE"/>
<path d="M130.23 123.891C129.959 124.844 130.099 126.6 129.061 126.897C128.191 127.058 128.287 126.594 128.226 125.895C127.944 122.657 127.33 118.519 123.383 118.045C123.213 117.733 122.882 117.79 122.883 117.043C122.885 116.02 123.954 116.333 124.692 116.094C125.026 115.986 125.214 115.776 125.387 115.706C127.131 115.002 127.863 114.262 128.564 112.452C128.885 111.622 129.051 109.421 129.602 109.146C130.998 108.452 130.814 110.242 130.92 110.925C131.274 113.208 132.141 115.142 134.295 116.235C134.952 116.569 136.94 116.914 137.164 117.375C137.902 118.891 135.431 118.934 134.527 119.248C132.367 120 130.848 121.711 130.232 123.887L130.23 123.891ZM133.402 117.548C131.803 117.038 130.672 115.395 129.812 114.04C129.127 115.442 127.911 116.747 126.389 117.214C127.757 118.319 128.716 119.872 129.23 121.553L130.234 120.138C131.024 118.983 132.129 118.603 133.189 117.921C133.352 117.817 133.488 117.939 133.403 117.549L133.402 117.548Z" fill="#2DC9AE"/>
<path d="M139.75 137.418C139.218 138.469 138.661 139.081 137.746 139.756L129.061 126.897C130.099 126.6 129.959 124.845 130.23 123.891L139.75 137.418Z" fill="#C681C2"/>
<path d="M128.226 125.895C126.745 123.194 124.855 120.754 123.383 118.045C127.33 118.519 127.944 122.657 128.226 125.895Z" fill="#C681C2"/>
<path d="M144.759 144.766C144.136 145.184 143.093 146.056 142.589 146.603L138.915 141.426C139.31 141.119 140.608 139.693 140.919 139.256L144.76 144.767L144.759 144.766Z" fill="#C681C2"/>
<path d="M119.197 30C119.476 30.2715 119.655 30.6508 119.711 31.1152C120.196 35.1877 119.318 40.3027 120.463 44.3916C120.628 44.9814 121.031 45.5672 121.215 46.1465C122.977 51.6787 123.278 56.1068 120.343 61.3154C119.205 63.3324 115.987 67.3681 115.57 69.4014C115.313 70.6537 115.387 79.0303 115.692 80.2275C116.572 83.6809 121.257 90.7755 123.413 93.8818C131.158 105.038 141.168 115.85 150.183 126.062C153.658 129.999 157.574 133.872 160.877 137.915C161.543 138.73 162.64 139.706 161.72 140.769C161.454 141.075 160.09 141.763 159.626 142.013C155.543 144.21 150.912 145.903 146.596 147.604L146.597 147.607L150.309 153.495C150.809 155.303 149.967 155.34 148.603 155.707C142.407 157.376 135.61 158.157 129.229 158.795L132.537 166.43C132.559 167.083 132.174 167.661 131.566 167.895C110.277 171.628 88.1144 170.958 66.7645 168.066C65.937 167.786 65.6533 167.285 65.7753 166.405L68.1054 160.464C63.4418 159.962 58.7919 159.242 54.2128 158.24C51.8993 157.734 48.9422 157.104 46.7284 156.373C45.5488 155.984 44.893 155.585 45.3573 154.163C46.9484 151.912 48.5642 149.676 50.1073 147.392C50.2269 147.216 50.8576 146.381 50.7372 146.27C47.6264 145.467 44.5251 144.372 41.5116 143.221C40.4832 142.828 36.5838 141.476 36.0643 140.817C35.6857 140.337 35.5449 139.596 35.9657 139.094C47.4163 125.819 59.7164 112.941 70.3427 98.9893C73.4664 94.8876 81.7626 83.6672 82.1395 78.8896C82.299 76.8657 82.4091 71.436 82.0936 69.5703C81.736 67.4514 78.411 63.1504 77.2606 61.042C75.0538 56.9953 74.6488 52.9212 75.7323 48.4336C76.1463 46.7194 77.0911 45.1199 77.41 43.4326C78.1382 39.583 77.627 35.5738 77.9589 31.791C78.0053 31.2668 78.1029 30.429 78.4999 30H86.8895C87.0383 30.1627 87.1659 30.3784 87.2636 30.6631C87.6763 33.3459 87.8332 36.084 88.3632 38.748C88.7419 40.6512 88.6077 41.06 90.1942 42.2607C91.918 43.5659 95.7992 45.9163 97.7704 46.709C98.6039 47.0431 98.8032 47.206 99.7059 46.8555C101.429 46.1859 104.54 44.1983 106.165 43.1289C108.564 41.5507 108.684 41.662 109.303 38.752C109.868 36.0983 110.015 33.3421 110.395 30.6592C110.485 30.365 110.617 30.1521 110.798 30H119.197ZM101.351 81.8809C99.1857 81.6757 96.9951 81.855 94.827 81.9746C94.1258 96.7847 90.0005 110.964 84.9325 124.77L69.2763 165.642C72.8246 165.67 76.3486 166.347 79.8817 166.645C92.1027 167.672 105.591 167.835 117.789 166.811C121.505 166.499 125.237 165.987 128.896 165.308L128.895 165.306C118.665 141.119 105.263 117.794 102.009 91.2412L101.484 82.0811L101.351 81.8809ZM91.9862 81.8076L89.8329 81.9912C86.4124 94.9343 80.5526 106.583 73.5194 117.864C65.8352 130.191 57.2088 141.929 49.0673 153.948C55.5248 155.901 62.2606 156.543 68.8729 157.782L69.2587 157.525C78.2901 132.822 90.4451 108.564 91.9862 81.8076ZM104.347 81.8066C104.915 89.6796 105.797 97.5055 107.6 105.188C111.797 123.064 120.88 139.32 127.906 156.106L139.582 154.618C139.746 155.716 140.818 155.99 141.293 154.905C141.436 154.577 141.364 154.365 141.42 154.117L146.596 153.281L143.59 148.606C145.002 146.858 146.835 145.531 149.026 144.941C149.771 144.741 151.811 144.708 151.941 144.013C152.089 143.225 151.912 143.011 151.272 142.762L158.283 139.338C145.822 125.201 132.337 111.447 121.41 96.0537C118.276 91.6377 115.134 86.8593 113.196 81.8066H109.856C112.987 92.2734 116.821 102.712 122.712 111.953C123.517 113.216 124.389 114.614 125.388 115.707C125.213 115.777 125.025 115.986 124.692 116.095C123.955 116.334 122.885 116.021 122.883 117.044C122.47 117.07 122.458 116.786 122.294 116.547C118.341 110.765 114.926 104.322 112.284 97.834C110.16 92.6205 108.341 87.2347 106.85 81.8066H104.347ZM86.8104 81.8066H84.4725C82.39 87.0786 79.2018 91.8052 75.9257 96.3877C70.1235 104.505 63.5247 112.173 57.0038 119.718C51.2815 126.338 45.3715 132.804 39.5507 139.339C43.7497 141.092 48.0448 142.652 52.4667 143.776C59.2995 133.986 66.3329 124.25 72.5184 114.023C78.6536 103.879 83.7014 93.3055 86.8124 81.8057L86.8104 81.8066ZM84.9725 78.6338L112.694 78.7998L112.695 78.8008V71.2031C112.695 71.1855 112.462 70.9521 112.444 70.9521H84.9725V78.6338ZM81.1317 32.541C80.8667 36.175 81.0299 40.0309 80.4413 43.625C79.9418 46.6703 78.3236 48.9254 78.1278 52.333C77.762 58.7038 82.4257 62.5126 84.622 68.0098L84.8827 68.126L113.003 68.0859C115.368 62.2698 120.025 58.8304 119.54 52C119.31 48.7613 117.675 46.4476 117.224 43.4609C116.691 39.935 116.749 36.1064 116.703 32.543H113.196C112.703 35.5049 112.624 38.8198 111.739 41.6914C110.905 44.3977 107.497 45.8886 105.125 47.2676C103.963 47.9442 99.8153 50.4708 98.7528 50.4229C97.9567 50.3865 93.5404 47.8438 92.5429 47.2676C91.3668 46.5887 90.0062 45.8241 88.8934 45.0713C85.9936 43.1084 86.0047 42.2672 85.3856 38.8926C85.0034 36.8101 84.7463 34.6489 84.6395 32.543V32.541H81.1317Z" fill="#C681C2"/>
</svg>
