<svg width="200" height="200" viewBox="0 0 200 200" fill="none" xmlns="http://www.w3.org/2000/svg">
<path d="M29.5819 151.284C29.9477 151.125 30.4977 151.044 30.9363 150.839C33.1009 149.828 34.5831 147.74 35.3876 145.538C35.6397 144.847 36.192 141.962 36.4793 141.753C37.7351 140.837 37.6366 143.693 37.7234 144.242C38.0201 146.126 38.7506 147.705 40.3876 148.777C40.9211 149.126 42.5792 149.628 42.5745 150.295C42.5687 151.031 41.9085 150.987 41.4559 151.259C40.3137 151.946 39.0649 153.934 38.4997 155.152C38.074 156.069 37.6976 157.817 37.2274 158.523C37.0421 158.801 36.851 158.915 36.5121 158.811C36.1427 158.698 35.8191 156.97 35.6022 156.465C34.3252 153.513 32.6272 153.005 29.6991 152.675C28.8197 152.576 28.7576 151.638 29.5831 151.282L29.5819 151.284ZM40.377 150.356C38.9593 149.766 37.9778 148.469 37.2578 147.148L36.6645 145.479C36.1333 147.446 35.2269 149.318 33.6357 150.635L32.021 151.631C33.6544 152.022 35.0053 153.005 35.9445 154.383L36.7771 155.928C37.3669 153.727 38.5935 151.776 40.377 150.357V150.356Z" fill="#2DC9AE"/>
<path d="M166.386 126.772C166.553 126.722 166.729 126.727 166.898 126.766C167.437 127.592 167.369 128.659 167.774 129.663C168.164 130.634 168.696 131.385 169.6 131.941C170.138 132.272 171.645 132.639 171.713 133.253C171.796 134.016 170.765 134.059 170.263 134.311C168.896 134.998 168.277 136.373 168.001 137.816C167.879 138.453 168.031 140.05 167.14 140.051C166.409 140.052 166.231 138.174 165.961 137.578C165.389 136.317 163.965 135.316 162.592 135.18C161.955 135.117 159.888 135.519 160.404 134.32C160.653 133.742 161.708 133.754 162.315 133.57C164.647 132.862 165.75 131.186 165.974 128.799C166.027 128.239 165.737 126.965 166.388 126.771L166.386 126.772ZM169.301 133.296C168.173 132.839 167.546 131.791 166.863 130.853C166.749 131.778 165.942 132.797 165.25 133.401C164.973 133.644 164.491 133.864 164.27 134.06C164.186 134.135 164.149 134.226 164.202 134.289C164.249 134.346 165.216 134.86 165.473 135.071C166.024 135.524 166.471 136.118 166.972 136.62C167.222 135.154 168.251 134.225 169.302 133.294L169.301 133.296Z" fill="#2DC9AE"/>
<path d="M116.901 85.7002C115.141 84.4736 113.383 83.24 111.683 81.929L111.281 81.8634L108.248 87.9575L116.608 136.289C116.712 136.894 116.601 137.443 116.214 137.918C111.223 142.939 106.801 148.868 101.808 153.842C100.89 154.757 100.24 154.891 99.246 153.996C97.0286 152.002 94.6306 148.775 92.5433 146.495C90.2638 144.003 87.7063 141.51 85.5404 138.95C85.0538 138.374 84.3185 137.685 84.2728 136.924L92.5996 87.9446C92.5996 87.6139 90.0714 82.7499 89.7056 82.2233C89.6106 82.0862 89.532 81.9384 89.3679 81.868L81.0399 87.7827C80.2894 88.1638 79.5085 87.941 79.0418 87.2586L72.121 51.7728L71.7575 50.4899L50.4111 50.4313C49.3699 50.5286 48.318 50.9918 47.8149 51.9522C47.754 52.0683 47.4585 52.7836 47.4585 52.8305V117.194C47.4585 117.208 47.2673 117.401 47.2521 117.401H44.507C44.4824 117.401 44.1634 117.082 44.1634 117.057V52.1457C44.1634 50.1123 47.2029 47.1362 49.3265 47.1538L72.5783 47.0752C75.0173 45.0888 77.0308 42.6169 79.471 40.6563C93.2668 40.4054 107.128 40.6235 120.95 40.5461C121.316 40.5707 121.622 40.7525 121.907 40.9612C123.682 42.2675 125.489 44.8121 127.256 46.3166C127.479 46.5065 128.139 47.0905 128.361 47.1339L151.79 47.1726C154.322 47.6967 156.266 49.757 156.682 52.2981C156.825 60.2051 156.545 68.1261 156.69 76.0319C156.696 76.3732 157.061 78.152 156.491 78.152H153.746C153.7 78.152 153.537 77.9703 153.402 78.0148V52.8316C153.402 51.632 151.608 50.3691 150.45 50.4325L129.13 50.4477L124.446 74.3093C123.522 74.0209 121.993 73.0593 121.289 72.3886L125.925 49.6468C125.925 49.4135 124.91 48.4742 124.654 48.2315C123.724 47.345 122.741 46.4725 121.772 45.6271C119.609 50.1088 117.671 54.6961 115.033 58.9281C112.053 63.7065 108.684 67.582 104.336 71.1491C104.029 71.4012 103.159 71.753 103.593 72.038L108.663 75.5453C108.31 75.6684 107.865 76.3403 108.248 76.7167C108.448 76.9126 111.451 77.6959 112.193 78.1239C114.726 79.5873 116.508 82.8648 116.899 85.7013L116.901 85.7002ZM118.685 43.9807H82.1797L84.6047 49.3384L116.152 49.3431L116.366 49.2481C116.555 48.5926 118.892 44.1812 118.685 43.9807ZM81.4949 83.2295L97.4108 71.7706C92.8107 68.1836 88.9375 63.8636 85.8289 58.9269C83.1506 54.6738 81.183 50.0502 79.0922 45.4922L75.1745 49.2563L75.0384 49.8039L81.4961 83.2295H81.4949ZM114.705 52.6264H86.1596C87.8775 56.1115 89.9999 59.4429 92.4765 62.4354C93.5905 63.7827 94.8991 65.2321 96.1761 66.4211C96.6768 66.8867 100.028 69.7209 100.386 69.7537C100.783 69.7912 103.66 67.4014 104.141 66.9699C108.578 62.9818 112.087 57.963 114.706 52.6264H114.705ZM95.3764 85.9523H105.42L108.607 79.7949L100.293 73.9505L92.2103 79.7526L95.3764 85.9523ZM93.5705 101.481C93.8086 101.545 93.8449 101.385 93.9833 101.277C97.8717 98.2472 101.541 94.9088 105.38 91.8142C105.636 91.5562 105.211 89.4021 105.108 89.3271L95.7845 89.286L93.5705 101.481ZM91.651 113.422L107.097 100.796L106.196 95.5818C101.641 99.0305 97.344 102.82 92.8775 106.38L91.6521 113.422H91.651ZM89.1802 127.421L108.817 111.439L107.637 104.505L90.8172 118.458L89.1802 127.422V127.421ZM109.626 115.207C109.414 115.147 109.397 115.267 109.284 115.343C108.866 115.624 108.333 116.109 107.915 116.445C101.352 121.717 94.9073 127.145 88.3489 132.423C88.1953 132.689 87.623 136.143 87.691 136.378C87.8318 136.871 89.7396 138.197 90.0011 138.889C91.9418 137.489 93.8262 135.933 95.6942 134.417C100.69 130.363 105.626 126.231 110.595 122.144L110.717 121.612L109.626 115.208V115.207ZM112.344 131.648C112.127 129.679 111.815 127.694 111.343 125.774L92.3358 141.349L95.951 145.25L112.343 131.648H112.344ZM113.057 135.243L98.1637 147.591C97.9984 147.753 98.1496 147.823 98.2329 147.942C98.3795 148.152 100.163 150.072 100.297 150.141C100.573 150.285 101.12 149.601 101.326 149.38C105.252 145.208 108.938 140.805 112.921 136.684C113.358 136.24 113.144 135.771 113.057 135.243Z" fill="#C681C2"/>
<path d="M47.4585 121.245V153.976C47.4585 154.797 49.1905 156.394 50.1286 156.246L150.871 156.312C151.893 156.118 153.405 154.77 153.405 153.702V116.304H119.576C118.985 116.304 118.597 115.074 118.549 114.588C118.346 112.559 118.354 108.252 118.54 106.212C118.58 105.772 119.011 104.956 119.433 104.905C120.592 104.767 123.503 105.195 124.352 104.778L137.204 92.0757C137.689 91.9526 138.26 91.9338 138.653 92.288L151.279 104.914H153.406V82.2011C153.406 82.1764 153.725 81.8575 153.749 81.8575H156.495C156.509 81.8575 156.701 82.0486 156.701 82.0639V154.25C156.701 156.531 153.738 159.463 151.423 159.54H49.7193C47.4632 159.65 44.1658 156.564 44.1658 154.388V121.451C44.1658 120.947 47.041 121.055 47.4596 121.245H47.4585ZM146.544 104.914L137.71 96.14L128.839 104.914H146.544ZM153.406 108.207H121.978V113.01H153.406V108.207Z" fill="#C681C2"/>
<path d="M159.976 55.6272C159.759 55.762 159.241 55.626 159.105 55.3668C158.864 54.9095 158.656 52.9372 158.445 52.1844C157.212 47.7741 154.509 45.3914 150.091 44.3442C149.567 44.2199 147.437 43.9889 147.227 43.7778C146.989 43.5375 147.002 43.0942 147.321 42.9042C147.675 42.6932 149.255 42.4117 149.874 42.1631C153.973 40.518 156.472 36.4525 157.621 32.3436C157.918 31.2848 158.036 30.1555 158.401 29.1435C158.643 28.9712 159.017 28.9301 159.243 29.1541C159.502 29.4121 159.638 32.516 159.737 33.1879C160.413 37.7869 162.162 40.5555 166.828 41.7422C167.738 41.9732 168.984 41.9873 169.777 42.2229C170.167 42.339 170.348 42.9007 169.914 43.1259C169.502 43.3405 168.046 43.4483 167.405 43.636C163.378 44.8074 161.462 48.3382 160.585 52.1867C160.465 52.7109 160.124 55.5334 159.976 55.6248V55.6272ZM166.169 42.8808C166.32 42.6603 164.834 42.3355 164.661 42.2628C160.721 40.6341 159.105 37.5114 158.552 33.4119C157.372 36.9849 155.447 40.2612 152.213 42.3074C151.786 42.5771 151.252 42.7565 150.838 42.9898C150.718 43.0579 150.46 43.086 150.662 43.2924C150.73 43.3616 152.194 43.7133 152.518 43.84C155.803 45.1287 157.504 46.8454 158.921 50.0631C158.98 50.1979 159.394 51.6731 159.581 51.5289C160.488 47.841 162.467 44.2973 166.17 42.882L166.169 42.8808Z" fill="#2DC9AE"/>
<path d="M59.3559 126.337C59.5306 126.294 59.6221 126.342 59.7534 126.449C60.1087 126.737 60.267 129.271 60.4582 129.999C61.2321 132.941 63.2607 134.726 65.9882 135.859C66.6097 136.117 68.0075 136.389 68.4484 136.692C69.5765 137.464 67.0131 138.191 66.4421 138.514C63.6547 140.086 62.0107 142.631 61.0832 145.643C60.8592 146.372 60.3315 149.446 60.0899 149.728C59.9938 149.84 59.9 149.93 59.7405 149.933C59.1671 149.933 58.9432 147.863 58.779 147.321C57.5888 143.384 56.2156 140.861 52.1935 139.359C51.728 139.186 50.077 138.942 50.0652 138.475C50.0488 137.825 51.7116 137.399 52.2627 137.1C55.3995 135.396 57.407 133.113 58.3967 129.646C58.6371 128.806 58.7567 127.356 59.0206 126.702C59.0827 126.547 59.1824 126.38 59.3536 126.337H59.3559ZM59.8085 146.359C60.4593 143.725 61.6741 140.932 63.7251 139.09C64.54 138.358 65.5274 137.886 66.3951 137.233C63.9361 136.292 61.5804 134.892 60.2495 132.54C60.1298 132.329 59.3923 130.477 59.2633 130.577C58.6101 133.001 57.0424 135.09 55.07 136.609C54.2761 137.22 53.4799 137.562 52.7154 138.093C52.1959 138.454 52.8971 138.411 53.2606 138.568C55.6891 139.617 57.2147 141.051 58.4612 143.385L59.8085 146.357V146.359Z" fill="#2DC9AE"/>
<path d="M121.292 72.3886C121.995 73.0605 123.524 74.0209 124.449 74.3094C124.936 74.4606 126.424 74.5638 126.648 74.7866C127.47 75.6016 125.573 75.7798 125.166 75.9182C124.826 76.0343 124.346 76.2055 124.038 76.3685C122.336 77.2667 120.538 79.2109 119.646 80.8971C119.25 81.6464 119.114 82.2175 118.823 82.9562C118.546 83.6586 118.178 84.9931 117.891 85.5231C117.755 85.7741 117.631 85.9652 117.314 85.9757C117.179 85.8819 117.039 85.7963 116.902 85.7014C116.512 82.8648 114.729 79.5873 112.196 78.1239C111.455 77.6959 108.451 76.9126 108.252 76.7167C107.869 76.3415 108.314 75.6696 108.667 75.5453C108.803 75.4972 109.104 75.5828 109.354 75.4808C113.444 73.8168 115.68 70.6473 117.041 66.5583C117.286 65.8208 117.333 63.8296 118.323 64.1697C118.706 64.301 118.886 67.0239 119 67.6137C119.349 69.4289 119.929 71.0858 121.292 72.3886ZM121.018 73.8978C119.068 72.3769 118.597 70.2075 117.929 67.996C117.889 67.8658 117.905 67.6829 117.726 67.7239C116.679 71.4001 114.125 74.4407 110.726 76.1633C113.312 77.0849 115.348 78.8908 116.627 81.3087C116.944 81.9114 117.196 82.7229 117.452 83.3667L117.863 82.1331C118.156 80.6263 119.666 79.2555 120.196 78.016C120.819 77.8026 121.206 77.1377 121.717 76.7238C122.301 76.25 123.085 75.74 123.763 75.4058C124.03 75.088 123.049 74.9766 122.846 74.8851C122.308 74.6459 121.472 74.2507 121.02 73.8989L121.018 73.8978Z" fill="#2DC9AE"/>
<path d="M44.8154 43.602C45.7348 44.343 43.1421 44.7535 42.7974 44.8778C40.2563 45.7994 38.9125 47.4517 38.4165 50.103C38.3449 50.4829 38.3179 52.026 38.135 52.1539C38.0037 52.2453 37.53 52.2899 37.4244 52.1351C37.2767 51.9182 36.8979 49.9751 36.6411 49.3771C35.8425 47.5173 34.5187 46.3236 32.6859 45.5098C32.2274 45.3058 30.4004 44.8144 30.3008 44.7382C30.0838 44.5741 30.0897 43.9502 30.3008 43.772C30.4661 43.6324 31.2599 43.5163 31.573 43.3979C34.1938 42.4035 35.4309 41.2274 36.5954 38.6769C36.8393 38.1434 37.3857 36.0163 37.9181 36.0163C38.5478 36.0163 38.4586 38.0062 38.5993 38.6324C39.12 40.9436 40.6479 42.1409 42.754 42.9863C43.1409 43.1411 44.6935 43.5034 44.8131 43.6008L44.8154 43.602ZM37.714 39.1765C37.5077 38.9631 37.4748 39.2504 37.408 39.3535C37.0797 39.8578 36.8815 40.5098 36.5121 41.0609C35.5764 42.461 34.0027 43.677 32.3634 44.1179C32.8653 44.5705 33.6087 44.7499 34.1915 45.1017C35.513 45.8979 36.4289 46.9427 37.2415 48.2303C37.3986 48.4789 37.4772 49.152 37.7293 48.5914C37.9556 48.0849 38.0647 47.5619 38.3754 47.0412C39.2478 45.579 40.7218 44.5975 42.2439 43.9103C40.4955 43.2713 39.0109 42.128 38.1444 40.4628C38.0025 40.1908 37.7609 39.2246 37.714 39.1765Z" fill="#2DC9AE"/>
<path d="M117.313 85.9746C117.63 85.964 117.753 85.7729 117.889 85.5219C118.178 84.9919 118.545 83.6575 118.822 82.9551L119.232 83.1591L119.645 80.8971C120.537 79.2109 122.335 77.2667 124.036 76.3685L121.761 87.3371C120.71 89.1711 118.385 86.718 117.311 85.9757L117.313 85.9746Z" fill="#C681C2"/>
<path d="M121.018 73.8977C121.47 74.2495 122.306 74.6447 122.844 74.8839C123.048 74.9742 124.028 75.0856 123.761 75.4046C123.083 75.7376 122.299 76.2488 121.715 76.7226C121.203 77.1377 120.816 77.8014 120.194 78.0148C120.68 76.875 120.775 75.136 121.017 73.8977H121.018Z" fill="#C681C2"/>
<path d="M117.861 82.1319L117.451 83.3655C117.195 82.7217 116.944 81.9103 116.625 81.3075L117.86 82.1307L117.861 82.1319Z" fill="#C681C2"/>
<path d="M96.1386 54.5765L104.824 54.6152C104.953 54.7102 105.069 54.8474 105.131 54.994C105.289 55.368 105.321 58.8648 105.165 59.2107C105.042 59.4839 104.518 59.7736 104.21 59.7653L96.0436 59.6903C95.8313 59.4956 95.5522 59.3092 95.4948 59.0043C95.381 58.4098 95.4244 56.2451 95.4854 55.5697C95.5311 55.0737 95.591 54.7184 96.1386 54.5765Z" fill="#C681C2"/>
</svg>
